<?xml version="1.0" encoding="utf-8"?>
<!-- Generator: Adobe Illustrator 24.3.0, SVG Export Plug-In . SVG Version: 6.00 Build 0)  -->
<svg version="1.1" id="Layer_1" xmlns="http://www.w3.org/2000/svg" xmlns:xlink="http://www.w3.org/1999/xlink" x="0px" y="0px"
	 viewBox="0 0 128 128" style="enable-background:new 0 0 128 128;" xml:space="preserve">
<style type="text/css">
	.st0{fill:#FFFFFF;stroke:#FFFFFF;stroke-width:6;stroke-miterlimit:10;}
	.st1{fill:#FFFFFF;}
</style>
<path class="st0" d="M64,4.54C31.16,4.54,4.54,31.16,4.54,64c0,32.84,26.62,59.46,59.46,59.46S123.46,96.84,123.46,64
	C123.46,31.16,96.84,4.54,64,4.54z M64,118.51C33.9,118.51,9.49,94.1,9.49,64C9.49,33.9,33.9,9.49,64,9.49S118.51,33.9,118.51,64
	C118.51,94.1,94.1,118.51,64,118.51z"/>
<g>
	<path class="st1" d="M23.38,70.51l13.54-2.35v5.87c0,2.89,0.77,5,2.3,6.32c1.53,1.33,3.35,1.99,5.46,1.99
		c2.35,0,4.18-0.77,5.51-2.3c1.32-1.53,1.99-3.51,1.99-5.91V30.51h14.27v43.97c0,2.89-0.53,5.64-1.58,8.26
		c-1.05,2.62-2.54,4.89-4.47,6.82c-1.93,1.93-4.21,3.46-6.86,4.6c-2.65,1.14-5.57,1.72-8.76,1.72c-3.19,0-6.09-0.5-8.71-1.49
		c-2.62-0.99-4.86-2.42-6.73-4.29c-1.87-1.86-3.33-4.09-4.38-6.68c-1.05-2.59-1.58-5.48-1.58-8.67V70.51z"/>
	<path class="st1" d="M79.81,94.52V30.51h14.45v64.01H79.81z"/>
</g>
</svg>
